<?xml version="1.0" encoding="UTF-8"?><svg id="Layer_1" xmlns="http://www.w3.org/2000/svg" xmlns:xlink="http://www.w3.org/1999/xlink" viewBox="0 0 868.64 649.82"><defs><style>.cls-1{fill:#5c7abc;}.cls-2{fill:url(#radial-gradient-3);}.cls-3{fill:url(#radial-gradient-4);}.cls-4{fill:url(#radial-gradient-2);}.cls-5{opacity:.45;}.cls-6{opacity:.4;}.cls-7{opacity:.6;}.cls-8{fill:url(#radial-gradient);}</style><radialGradient id="radial-gradient" cx="482.01" cy="325.17" fx="482.01" fy="325.17" r="356.2" gradientUnits="userSpaceOnUse"><stop offset="0" stop-color="#fcef44"/><stop offset=".04" stop-color="#fce234"/><stop offset=".12" stop-color="#fcd322"/><stop offset=".2" stop-color="#fcca16"/><stop offset=".28" stop-color="#fdc713"/><stop offset=".67" stop-color="#f29140"/><stop offset=".89" stop-color="#ed683c"/><stop offset="1" stop-color="#e93f3a"/></radialGradient><radialGradient id="radial-gradient-2" cx="386.06" cy="324.92" fx="386.06" fy="324.92" r="359.92" gradientTransform="translate(-28.56 39.4) rotate(-5.62)" gradientUnits="userSpaceOnUse"><stop offset="0" stop-color="#fbb042"/><stop offset="1" stop-color="#f15b2b"/></radialGradient><radialGradient id="radial-gradient-3" cx="443.6" cy="253" fx="443.6" fy="253" r="253.96" gradientUnits="userSpaceOnUse"><stop offset="0" stop-color="#2bace2"/><stop offset="1" stop-color="#2a3c90"/></radialGradient><radialGradient id="radial-gradient-4" cx="439.11" cy="252.74" fx="439.11" fy="252.74" r="258.2" xlink:href="#radial-gradient-3"/></defs><g class="cls-7"><path class="cls-8" d="M856.49,226.85c48.98,93.87-58.4,251.54-244.72,348.77-185.23,96.65-375.98,97.21-426.06,1.25l-79.66-152.66c-48.41-116.52,79.19-262.39,253.67-353.44,173.65-90.61,366.12-94.28,417.11,3.43,3.11,5.95,76.53,146.66,79.66,152.66Z"/></g><g class="cls-7"><path class="cls-4" d="M678.97,580.66c-51.54,95.19-242.27,91.7-425.99-7.79C69.26,473.38-37.89,315.56,13.65,220.38L95.64,68.96c69.51-105.3,261.8-81.12,434.87,12.6,172.24,93.27,282.93,250.77,230.45,347.68-2.9,5.36-78.24,144.49-81.99,151.41Z"/></g><g class="cls-6"><path class="cls-1" d="M325.38,408.44C152.28,291.44,40.08,148.9,100.7,59.22L16.28,216.88c-56.41,92.59,38.46,237.44,212.68,341.22,179.5,106.92,377.21,120.69,437.18,39.45,4.62-6.26,80.99-145.59,84.42-150.66-59.38,87.85-253.32,77.71-425.18-38.45Z"/></g><g class="cls-5"><path class="cls-2" d="M438.39,39.7s-156.92,55.04-283.74,196.04c0,0,100.62,153.78,277.72,230.57,0,0,177.56-43.63,300.18-198.56,0,0-107.39-110.68-294.16-228.05Z"/><path class="cls-3" d="M143.27,246.78c2.52,3.78,26.67,34.74,77.2,80.12,45.7,41.04,118.62,100.26,209.95,139.89,2.98-.76,48.66-13.11,105.87-42.11,54.37-27.57,135.43-81.17,198.67-160.97-2.04-3.56-19.52-41.09-68.92-84.64-45.3-39.93-122.55-99.14-229.65-140.36-3.18,1.21-30.66,5.57-87.08,37.82-53.8,30.75-142.63,89.64-206.04,170.27Z"/></g><g class="cls-6"><path class="cls-1" d="M532.44,423.58c-185.23,96.65-375.98,97.21-426.06,1.25l79.66,152.66c50.08,95.97,240.83,95.41,426.06-1.25,186.32-97.23,293.7-254.9,244.72-348.77-3.13-6-76.55-146.7-79.66-152.66,50.08,95.97-59.49,252.12-244.72,348.77Z"/></g></svg>