<svg clip-rule="evenodd" fill-rule="evenodd" stroke-linejoin="round" stroke-miterlimit="2" viewBox="0 0 64 64" xmlns="http://www.w3.org/2000/svg"><path d="m-1088-64h1280v800h-1280z" fill="none"/><g fill="#00d8ff"><circle cx="32.001" cy="31.955" r="4.478"/><path d="m32.33 22.516c7.635.052 15.965.609 21.683 5.708.168.15.33.306.488.467 1.349 1.375 2.054 3.595.965 5.422-2.234 3.751-7.23 5.387-12.067 6.394-7.234 1.506-14.798 1.518-22.029.192-4.161-.764-8.416-2.103-11.373-4.904-1.151-1.09-2.135-2.524-1.981-4.12.25-2.582 2.727-4.239 4.812-5.361 5.791-3.116 12.847-3.813 19.502-3.798zm-.554 1.173c-7.224.049-15.043.51-20.621 5.129-.195.161-.383.33-.564.507-.117.114-.23.233-.339.355-.979 1.1-1.316 2.867-.392 4.188.93 1.329 2.342 2.288 3.796 3.07 5.438 2.924 11.864 3.443 18.129 3.465 6.343.023 12.884-.555 18.487-3.452 2.232-1.155 4.744-2.851 4.655-5.035-.082-2.004-2.036-3.242-3.499-4.126-.396-.239-.803-.46-1.216-.668-5.562-2.787-12.08-3.447-18.436-3.433z"/><path d="m42.115 10.703c2.793.071 4.24 3.429 4.431 5.909.038.493.052.988.046 1.483-.006.536-.035 1.072-.082 1.606-.589 6.612-3.608 12.909-7.163 18.724-3.477 5.688-7.717 11.36-13.485 13.996-1.907.872-4.175 1.41-5.863.437-2.314-1.333-2.567-4.451-2.524-6.816.011-.581.049-1.162.109-1.741.889-8.56 5.228-16.669 10.658-23.655 3.168-4.076 6.937-8.119 11.632-9.583.739-.231 1.326-.371 2.241-.36zm-.134 1.172c-3.279.052-6.223 2.482-8.83 5.007-6.854 6.637-11.905 15.464-13.937 24.721-.157.717-.289 1.439-.386 2.166-.075.563-.13 1.129-.159 1.697-.023.452-.031.905-.017 1.358.01.354.033.708.072 1.06.029.269.068.537.117.803.037.197.08.393.13.588.041.158.087.315.139.471.409 1.233 1.463 2.411 2.878 2.45 3.301.09 6.409-2.317 9.096-4.933 4.717-4.591 8.232-10.36 10.978-16.424 2.216-4.896 4.243-10.218 3.111-15.607-.043-.204-.093-.406-.15-.606-.047-.163-.1-.324-.158-.483-.44-1.199-1.475-2.271-2.884-2.268z"/><path d="m22.109 10.747c3.564.069 6.765 2.488 9.607 5.197 5.186 4.943 9.011 11.231 11.913 17.849 2.248 5.127 4.316 10.882 2.478 16.292-.579 1.705-2.044 3.265-3.997 3.305-3.581.072-6.9-2.532-9.78-5.335-7.225-7.034-12.589-16.32-14.427-26.168-.132-.704-.237-1.414-.309-2.127-.059-.582-.096-1.167-.106-1.752-.008-.472.002-.944.035-1.414.022-.314.054-.626.097-.937.041-.292.093-.583.158-.871.043-.191.091-.38.146-.568.539-1.843 1.941-3.485 4.185-3.471zm-.135 1.173c-2.087.046-3.042 2.507-3.234 4.234-.039.354-.063.711-.074 1.068-.014.456-.008.913.015 1.369.328 6.599 3.278 12.979 6.838 18.821 3.352 5.5 7.4 10.978 12.968 13.794 1.608.813 3.562 1.452 4.951.684 1.742-.964 1.956-3.261 2.049-4.973.025-.466.028-.934.013-1.401-.018-.586-.064-1.171-.133-1.753-.642-5.437-3.05-10.582-5.816-15.444-3.442-6.048-7.659-12.076-13.627-15.225-1.236-.652-2.574-1.185-3.95-1.174z"/></g></svg>